<?xml version="1.0" encoding="utf-8"?>
<svg version="1.1" id="layer" xmlns="http://www.w3.org/2000/svg" x="0px" y="0px" viewBox="-127.045 63.251 619.052 459.345" style="enable-background:new -153 -46 652 652;" xmlns:bx="https://boxy-svg.com">
  <defs>
    <filter id="drop-shadow-filter-0" bx:preset="drop-shadow 1 12 18 11 0.69 #00000076" color-interpolation-filters="sRGB" x="-50%" y="-50%" width="200%" height="200%">
      <feGaussianBlur in="SourceAlpha" stdDeviation="11"/>
      <feOffset dx="12" dy="18"/>
      <feComponentTransfer result="offsetblur">
        <feFuncA id="spread-ctrl" type="linear" slope="1.38"/>
      </feComponentTransfer>
      <feFlood flood-color="#00000076"/>
      <feComposite in2="offsetblur" operator="in"/>
      <feMerge>
        <feMergeNode/>
        <feMergeNode in="SourceGraphic"/>
      </feMerge>
    </filter>
    <filter id="drop-shadow-filter-1" bx:preset="drop-shadow 1 12 18 13 0.69 #00000081" color-interpolation-filters="sRGB" x="-50%" y="-50%" width="200%" height="200%">
      <feGaussianBlur in="SourceAlpha" stdDeviation="13"/>
      <feOffset dx="12" dy="18"/>
      <feComponentTransfer result="offsetblur">
        <feFuncA id="spread-ctrl" type="linear" slope="1.38"/>
      </feComponentTransfer>
      <feFlood flood-color="#00000081"/>
      <feComposite in2="offsetblur" operator="in"/>
      <feMerge>
        <feMergeNode/>
        <feMergeNode in="SourceGraphic"/>
      </feMerge>
    </filter>
    <filter id="drop-shadow-filter-2" bx:preset="drop-shadow 1 12 18 17 0.69 #0000007b" color-interpolation-filters="sRGB" x="-50%" y="-50%" width="200%" height="200%">
      <feGaussianBlur in="SourceAlpha" stdDeviation="17"/>
      <feOffset dx="12" dy="18"/>
      <feComponentTransfer result="offsetblur">
        <feFuncA id="spread-ctrl" type="linear" slope="1.38"/>
      </feComponentTransfer>
      <feFlood flood-color="#0000007b"/>
      <feComposite in2="offsetblur" operator="in"/>
      <feMerge>
        <feMergeNode/>
        <feMergeNode in="SourceGraphic"/>
      </feMerge>
    </filter>
  </defs>
  <style type="text/css">
	.st0{fill:#D9272E;}
	.st1{fill:#88898D;}
</style>
  <path class="st1" d="M 260.914 244.293 C 260.037 244.293 259.286 244.668 258.785 245.295 C 258.785 245.295 176.366 346.127 172.232 351.136 C 168.224 346.002 87.183 245.295 87.183 245.295 C 86.682 244.668 85.93 244.293 85.053 244.293 L 36.578 244.293 C 35.451 244.293 34.574 244.918 34.074 245.92 C 33.573 246.922 33.824 248.049 34.45 248.801 L 146.429 384.83 C 146.93 385.457 147.682 385.832 148.559 385.832 L 195.781 385.832 C 196.532 385.832 197.409 385.457 197.91 384.83 L 311.518 248.801 C 312.27 247.924 312.394 246.797 311.894 245.795 C 311.393 244.793 310.516 244.168 309.389 244.168 L 260.914 244.168 L 260.914 244.293 Z" style="fill: rgb(217, 39, 46); stroke: rgb(255, 255, 255); stroke-width: 0px; filter: url(&quot;#drop-shadow-filter-2&quot;);"/>
  <path d="M 468.159 275.496 C 467.294 273.374 446.436 222.884 399.694 171.872 C 356.418 124.64 281.962 68.341 172.989 68.341 C 64.04 68.341 -10.429 124.64 -53.688 171.872 C -100.43 222.884 -121.28 273.374 -122.16 275.496 C -123.33 278.379 -123.33 281.665 -122.16 284.545 C -121.28 286.669 -100.43 337.144 -53.688 388.145 C -10.429 435.367 64.04 491.659 172.989 491.659 C 281.962 491.659 356.418 435.367 399.694 388.145 C 446.433 337.144 467.294 286.669 468.159 284.545 C 469.332 281.665 469.332 278.379 468.159 275.496 Z M 384.726 372.967 C 325.832 436.941 254.604 469.378 172.989 469.378 C 91.398 469.378 20.144 436.941 -38.732 372.967 C -63.897 345.678 -85.042 314.329 -101.5 280.02 C -85.042 245.703 -63.897 214.344 -38.732 187.049 C 20.17 123.063 91.398 90.621 172.989 90.621 C 254.604 90.621 325.832 123.063 384.723 187.049 C 409.889 214.347 431.057 245.703 447.49 280.02 C 431.057 314.329 409.889 345.681 384.726 372.967 Z" style="fill: rgb(136, 137, 141); stroke: rgb(255, 255, 255); stroke-width: 0px; filter: url(&quot;#drop-shadow-filter-0&quot;);"/>
  <path d="M 173.003 106.075 C 76.95 106.075 -0.921 183.947 -0.921 280 C -0.921 376.058 76.95 453.925 173.003 453.925 C 269.058 453.925 346.922 376.058 346.922 280 C 346.812 183.99 269.017 106.183 173.003 106.075 Z M 173.003 432.303 C 94.421 432.303 20.7 358.592 20.7 280 C 20.7 201.411 94.421 127.699 173.003 127.699 C 251.586 127.699 325.304 201.411 325.304 280 C 325.224 358.556 251.546 432.215 173.003 432.303 Z" style="fill: rgb(136, 137, 141); stroke: rgb(255, 255, 255); stroke-width: 0px; filter: url(&quot;#drop-shadow-filter-1&quot;);"/>
</svg>